<mxfile host="app.diagrams.net" modified="2024-03-08T10:46:49.886Z" agent="Mozilla/5.0 (Windows NT 10.0; Win64; x64) AppleWebKit/537.36 (KHTML, like Gecko) Chrome/122.0.0.0 Safari/537.36" version="24.0.2" etag="VRX20Z3QH2Yi5lnQYgT-" type="github">
  <diagram name="Page-1" id="tMfxKN45UCc-SLmAuYEy">
    <mxGraphModel>
      <root>
        <mxCell id="0" />
        <mxCell id="1" parent="0" />
      </root>
    </mxGraphModel>
  </diagram>
</mxfile>
